<?xml version="1.0" encoding="UTF-8"?> <svg xmlns="http://www.w3.org/2000/svg" width="17" height="17" viewBox="0 0 17 17" fill="none"><path d="M6.34275 16.9846C6.26611 16.9846 6.184 16.9846 6.10735 16.9846C2.78434 16.8315 0.47411 15.0975 0.0689983 12.4609C-0.379909 9.52345 1.65113 6.76652 4.59093 6.32345C6.01977 6.11012 7.43766 6.4602 8.59825 7.31353C9.75884 8.16687 10.5143 9.41952 10.7333 10.8472C11.007 12.6359 10.5198 14.4684 9.46869 15.6335C8.66395 16.5252 7.58546 16.9956 6.34275 16.9956V16.9846ZM5.4121 7.34635C5.19312 7.34635 4.97413 7.36276 4.75515 7.39558C2.41208 7.75114 0.791636 9.94464 1.15295 12.2858C1.53617 14.7857 3.98873 15.7812 6.15662 15.8797C7.1694 15.9289 8.01795 15.5898 8.65846 14.8841C9.49606 13.9542 9.87928 12.4609 9.65482 10.9949C9.47964 9.86259 8.87744 8.86157 7.95225 8.17781C7.20772 7.6308 6.32086 7.34088 5.4121 7.34088V7.34635Z" fill="#E5BC4E"></path><path d="M3.20243 13.6534C3.00535 13.6534 2.81375 13.544 2.71521 13.358C1.69696 11.3669 2.57287 10.0322 3.17507 9.60552C3.42142 9.43048 3.7663 9.49065 3.93601 9.7368C4.11119 9.98296 4.05099 10.3221 3.81011 10.4971C3.70609 10.5737 2.87397 11.2739 3.68967 12.8657C3.82653 13.1337 3.72251 13.4619 3.44879 13.6042C3.36667 13.6424 3.28455 13.6643 3.20243 13.6643V13.6534Z" fill="#E5BC4E"></path><path d="M11.2461 11.241C10.841 11.241 10.425 11.1918 10.0144 11.0988L10.2662 10.0321C12.0454 10.4533 13.8465 9.6875 14.8538 8.0793C15.6476 6.80477 15.998 4.83554 14.591 3.12888C13.0965 1.30734 10.945 1.38392 9.55452 2.00204C8.164 2.62016 6.66398 4.16819 7.00887 6.50392L5.92494 6.66255C5.56362 4.2393 6.8118 2.01845 9.10561 1.00101C11.3939 -0.0164214 13.8794 0.546997 15.4286 2.43418C16.8903 4.21195 17.0217 6.65708 15.7735 8.65913C14.7498 10.3002 13.0527 11.241 11.2407 11.241H11.2461Z" fill="#E5BC4E"></path><path d="M13.591 5.49747C13.3173 5.49747 13.0819 5.29507 13.049 5.0161C13.0326 4.89029 12.8246 3.82362 11.0399 3.76345C10.7388 3.75251 10.5034 3.50089 10.5089 3.20003C10.5198 2.90465 10.7607 2.66943 11.0563 2.66943C11.0618 2.66943 11.0673 2.66943 11.0728 2.66943C13.3118 2.74601 14.0564 4.1573 14.1385 4.89029C14.1713 5.19114 13.9523 5.45918 13.6512 5.492C13.6293 5.492 13.6129 5.492 13.591 5.492V5.49747Z" fill="#E5BC4E"></path></svg> 