<?xml version="1.0" encoding="UTF-8"?> <svg xmlns="http://www.w3.org/2000/svg" width="11" height="18" viewBox="0 0 11 18" fill="none"><path d="M7.95032 1.12684C7.73134 0.475897 7.1182 0 6.3901 0C5.96856 0 5.58535 0.158632 5.2952 0.421196C5.00505 0.158632 4.62184 0 4.2003 0C3.4722 0 2.85905 0.470427 2.64008 1.12684C1.35357 1.30188 0.368164 2.20444 0.368164 3.28205C0.368164 3.5829 0.614516 3.82906 0.915612 3.82906C1.59445 3.82906 2.01051 4.78632 2.01051 5.47008V14.2222C2.01051 16.0328 3.48315 17.5043 5.2952 17.5043C7.10725 17.5043 8.57989 16.0328 8.57989 14.2222V5.47008C8.57989 4.78632 8.99595 3.82906 9.67479 3.82906C9.97588 3.82906 10.2222 3.5829 10.2222 3.28205C10.2222 2.20444 9.23683 1.30188 7.95032 1.12684ZM7.48499 5.47008V13.4017C7.48499 13.8557 7.1182 14.2222 6.66382 14.2222C6.20944 14.2222 5.84265 13.8557 5.84265 13.4017V5.47008C5.84265 5.00513 6.14374 4.56205 6.63645 4.3159C6.9047 4.17914 7.01419 3.85094 6.8828 3.5829C6.74594 3.31487 6.41747 3.2 6.14922 3.33675C5.8098 3.50632 5.52513 3.73607 5.30067 4.0041C5.07622 3.73607 4.79155 3.50632 4.45213 3.33675C4.18388 3.2 3.85541 3.3094 3.71855 3.5829C3.58169 3.85094 3.69118 4.17914 3.9649 4.3159C4.45213 4.56205 4.7587 4.99966 4.7587 5.47008V13.4017C4.7587 14.4574 5.61819 15.3162 6.67477 15.3162C6.87185 15.3162 7.06346 15.2779 7.24411 15.2178C6.87732 15.9234 6.15469 16.4102 5.30615 16.4102C4.09629 16.4102 3.11635 15.4311 3.11635 14.2222V5.47008C3.11635 4.39248 2.55248 3.24376 1.6054 2.86085C1.85722 2.46701 2.44847 2.18803 3.11635 2.18803C3.41745 2.18803 3.6638 1.94188 3.6638 1.64102C3.6638 1.34017 3.91015 1.09402 4.21125 1.09402C4.51235 1.09402 4.7587 1.34017 4.7587 1.64102C4.7587 1.94188 5.00505 2.18803 5.30615 2.18803C5.60724 2.18803 5.85359 1.94188 5.85359 1.64102C5.85359 1.34017 6.09995 1.09402 6.40104 1.09402C6.70214 1.09402 6.94849 1.34017 6.94849 1.64102C6.94849 1.94188 7.19484 2.18803 7.49594 2.18803C8.16383 2.18803 8.75507 2.47248 9.0069 2.86085C8.05981 3.23829 7.49594 4.38701 7.49594 5.47008H7.48499Z" fill="#E5BC4E"></path></svg> 