<?xml version="1.0" encoding="UTF-8"?> <svg xmlns="http://www.w3.org/2000/svg" width="12" height="18" viewBox="0 0 12 18" fill="none"><path d="M6.19296 3.28225C6.4953 3.28225 6.7404 3.03735 6.7404 2.73524C6.7404 2.43314 6.4953 2.18823 6.19296 2.18823C5.89061 2.18823 5.64551 2.43314 5.64551 2.73524C5.64551 3.03735 5.89061 3.28225 6.19296 3.28225Z" fill="#E5BC4E"></path><path d="M7.83749 5.47048C8.13983 5.47048 8.38494 5.22558 8.38494 4.92347C8.38494 4.62137 8.13983 4.37646 7.83749 4.37646C7.53514 4.37646 7.29004 4.62137 7.29004 4.92347C7.29004 5.22558 7.53514 5.47048 7.83749 5.47048Z" fill="#E5BC4E"></path><path d="M5.10116 6.01736C5.40351 6.01736 5.64861 5.77245 5.64861 5.47035C5.64861 5.16824 5.40351 4.92334 5.10116 4.92334C4.79881 4.92334 4.55371 5.16824 4.55371 5.47035C4.55371 5.77245 4.79881 6.01736 5.10116 6.01736Z" fill="#E5BC4E"></path><path d="M10.2626 8.37528C9.78083 7.83922 9.67134 7.11169 9.98886 6.55922C10.5144 5.65665 10.6896 4.62281 10.5035 3.57802C10.1914 1.82759 8.81185 0.421783 7.07097 0.0826378C5.76257 -0.168986 4.4268 0.159219 3.41402 0.996142C2.40124 1.83306 1.82094 3.06383 1.82094 4.37665C1.82094 5.11511 2.00707 5.8481 2.36839 6.49357C2.71328 7.11716 2.664 7.82827 2.24247 8.26588C1.28443 9.26691 0.74794 10.5852 0.726042 11.9691C0.687721 14.9339 3.06911 17.4173 6.03628 17.5049C6.09103 17.5049 6.14577 17.5049 6.20599 17.5049C7.6403 17.5049 8.98704 16.9578 10.0162 15.9623C11.0892 14.923 11.6805 13.5281 11.6805 12.0348C11.6805 10.6837 11.1823 9.38178 10.2735 8.37528H10.2626ZM9.24982 15.1746C8.39032 16.006 7.27353 16.4437 6.06366 16.4108C3.73153 16.3397 1.78809 14.3158 1.81546 11.9801C1.83188 10.8751 2.25889 9.81938 3.02532 9.02075C3.78079 8.23306 3.89576 7.00229 3.32094 5.96298C3.05269 5.48161 2.91036 4.9346 2.91036 4.37665C2.91036 3.39204 3.34832 2.46759 4.10927 1.844C4.70051 1.35717 5.43956 1.10007 6.20599 1.10007C6.42497 1.10007 6.64395 1.12195 6.86293 1.16571C8.16586 1.41734 9.19507 2.46759 9.43047 3.78041C9.57281 4.56811 9.43594 5.34486 9.04725 6.02315C8.48885 6.98588 8.65308 8.22759 9.45783 9.11921C10.1859 9.92332 10.5856 10.9626 10.5856 12.0457C10.5856 13.2382 10.1148 14.3541 9.25528 15.1855L9.24982 15.1746Z" fill="#E5BC4E"></path></svg> 