<?xml version="1.0" encoding="UTF-8"?> <svg xmlns="http://www.w3.org/2000/svg" width="20" height="18" viewBox="0 0 20 18" fill="none"><path d="M3.9059 11.5201C3.80424 11.5201 3.70259 11.5201 3.59559 11.5147C1.59467 11.4292 0.883111 10.2906 0.85101 10.2371C0.770759 10.1088 0.754708 9.95377 0.797508 9.80409C0.840309 9.65441 0.941961 9.5368 1.08106 9.47265C1.35927 9.33901 1.86217 9.1038 2.31158 8.91135C2.19922 8.6601 2.22597 8.43558 2.29017 8.26986C2.60048 7.48938 3.9166 7.5161 4.25365 7.56422C5.62327 7.76201 6.09942 8.82582 6.12082 8.87393C6.23852 9.14656 6.11547 9.46196 5.84262 9.57422C5.56976 9.69183 5.25411 9.56888 5.13641 9.29624C5.13106 9.28021 4.86356 8.73494 4.0985 8.62268C3.90055 8.59595 3.65979 8.61733 3.47789 8.65475C3.49929 8.67079 3.52069 8.68683 3.54209 8.70286C3.71864 8.82582 3.80425 9.04499 3.75609 9.25348C3.70794 9.46196 3.54209 9.62768 3.33344 9.6651C3.21039 9.69183 2.77168 9.87359 2.27948 10.0981C2.57373 10.2585 3.01779 10.4135 3.64374 10.4402C4.86891 10.4937 5.96567 10.1623 6.59698 9.55819C7.01963 9.15191 7.22829 8.62802 7.22829 7.99722C7.22829 7.70321 7.46369 7.46265 7.76329 7.46265C8.05755 7.46265 8.2983 7.69786 8.2983 7.99722C8.2983 8.92204 7.97194 9.72925 7.34064 10.3333C6.54883 11.0978 5.30761 11.5201 3.9059 11.5201Z" fill="#E5BC4E"></path><path d="M9.90234 11.1032C9.73113 11.1032 9.55993 11.0177 9.45828 10.868C9.29243 10.6221 9.35663 10.2907 9.60273 10.125C10.0789 9.80421 9.99863 9.24825 9.98793 9.18411C9.93978 8.89543 10.127 8.61745 10.4159 8.564C10.6995 8.51054 10.983 8.69229 11.0366 8.98097C11.1329 9.46208 11.0633 10.4297 10.1966 11.0124C10.1056 11.0765 9.99864 11.1032 9.89698 11.1032H9.90234Z" fill="#E5BC4E"></path><path d="M12.5791 11.226C12.4079 11.226 12.2367 11.1405 12.135 10.9908C11.9692 10.7449 12.0334 10.4135 12.2795 10.2478C12.7556 9.92702 12.6754 9.37106 12.6647 9.30691C12.6165 9.01824 12.8038 8.74026 13.0927 8.6868C13.3763 8.63334 13.6598 8.8151 13.7133 9.10377C13.8096 9.58489 13.7401 10.5525 12.8733 11.1352C12.7824 11.1993 12.6754 11.226 12.5737 11.226H12.5791Z" fill="#E5BC4E"></path><path d="M13.6482 3.20746H9.80687C9.58752 2.58735 8.99901 2.13831 8.29816 2.13831C7.5973 2.13831 7.01414 2.58735 6.78944 3.20746H4.55311C3.9646 3.20746 3.4831 2.72634 3.4831 2.13831C3.4831 1.55027 3.9646 1.06915 4.55311 1.06915H12.0432C12.3375 1.06915 12.5782 0.828593 12.5782 0.534576C12.5782 0.240559 12.3375 0 12.0432 0H4.55311C3.37075 0 2.41309 0.956892 2.41309 2.13831C2.41309 3.31972 3.37075 4.27661 4.55311 4.27661H6.78944C7.00879 4.89672 7.5973 5.34576 8.29816 5.34576C8.99901 5.34576 9.58217 4.89672 9.80687 4.27661H12.5782V8.01864H9.36817C8.52821 8.01864 7.8969 7.58564 7.4368 6.70359C6.78944 5.46872 5.79433 4.81119 4.55311 4.81119C4.25886 4.81119 4.01811 5.05175 4.01811 5.34576C4.01811 5.63978 4.25886 5.88034 4.55311 5.88034C5.39307 5.88034 6.02438 6.31335 6.48449 7.1954C7.13184 8.43027 8.12695 9.0878 9.36817 9.0878H13.1132C13.996 9.0878 14.7182 9.80947 14.7182 10.6915C14.7182 11.5736 13.996 12.2953 13.1132 12.2953H9.36817C9.07392 12.2953 8.83316 12.5358 8.83316 12.8298C8.83316 15.0751 9.67312 16.5024 11.3316 17.0797C11.3905 17.1011 11.4493 17.1064 11.5082 17.1064C11.5884 17.1064 11.674 17.0851 11.7489 17.0476C11.8773 16.9835 11.9736 16.8659 12.0164 16.7322C12.4338 15.4118 12.8457 14.9681 13.6482 14.9681C16.8957 14.9681 19.5333 12.3327 19.5333 9.0878C19.5333 5.84292 16.8957 3.20746 13.6482 3.20746ZM8.29816 4.27661C8.0039 4.27661 7.76315 4.03605 7.76315 3.74203C7.76315 3.44802 8.0039 3.20746 8.29816 3.20746C8.59241 3.20746 8.83316 3.44802 8.83316 3.74203C8.83316 4.03605 8.59241 4.27661 8.29816 4.27661ZM13.6482 8.0721V4.27661C15.7668 4.27661 17.5645 5.65047 18.2065 7.54822L15.2051 9.04503C14.8199 8.55857 14.2795 8.2004 13.6482 8.0721ZM11.1979 15.8448C10.4275 15.3958 10.0155 14.5886 9.92458 13.3644H13.1186C13.9585 13.3644 14.7022 12.9688 15.1944 12.3594L16.3072 13.1025C15.5475 13.605 14.638 13.899 13.6536 13.899C12.2626 13.899 11.6152 14.7757 11.1979 15.8448ZM17.1525 12.3808L15.6812 11.4025C15.7454 11.1726 15.7882 10.9374 15.7882 10.6915C15.7882 10.4456 15.7454 10.2264 15.6866 10.0019L18.4419 8.62806C18.4579 8.77774 18.4633 8.93277 18.4633 9.0878C18.4633 10.3601 17.9604 11.5201 17.1472 12.3808H17.1525Z" fill="#E5BC4E"></path></svg> 