<?xml version="1.0" encoding="UTF-8"?> <svg xmlns="http://www.w3.org/2000/svg" width="13" height="18" viewBox="0 0 13 18" fill="none"><path d="M12.0614 6.01709C12.0614 3.60478 10.0961 1.64102 7.68185 1.64102H6.58696V0.547008C6.58696 0.246154 6.34061 0 6.03951 0C5.73841 0 5.49206 0.246154 5.49206 0.547008V1.64102H4.39716C1.98292 1.64102 0.0175781 3.60478 0.0175781 6.01709C0.0175781 6.42188 0.242032 6.76649 0.565026 6.95795V10.9402C0.565026 15.4475 5.6344 17.3894 5.84791 17.4714C5.90813 17.4933 5.97382 17.5043 6.03951 17.5043C6.1052 17.5043 6.1709 17.4933 6.23112 17.4714C6.44462 17.3894 11.514 15.4475 11.514 10.9402V6.95795C11.837 6.76649 12.0614 6.41641 12.0614 6.01709ZM4.39716 2.73504H7.68185C9.49391 2.73504 10.9665 4.20649 10.9665 6.01709H1.11247C1.11247 4.20649 2.58511 2.73504 4.39716 2.73504ZM6.03951 16.3665C5.16907 15.9836 1.65992 14.2386 1.65992 10.9402V7.11111H10.4191V10.9402C10.4191 14.2386 6.90995 15.9836 6.03951 16.3665Z" fill="#E5BC4E"></path></svg> 