<?xml version="1.0" encoding="UTF-8"?> <svg xmlns="http://www.w3.org/2000/svg" width="12" height="17" viewBox="0 0 12 17" fill="none"><path d="M7.81566 16.0563C7.44339 16.0563 7.19704 16.018 7.16967 16.0126L6.66602 15.9305L6.75908 15.4273C6.77003 15.3562 7.0985 13.644 8.39595 12.725C9.69888 11.8006 11.4179 12.0632 11.489 12.0741L11.9927 12.1562L11.8996 12.6594C11.8887 12.7305 11.5602 14.4427 10.2628 15.3616C9.44158 15.9469 8.4507 16.0563 7.81566 16.0563ZM10.75 13.0314C10.2573 13.0423 9.54012 13.1353 8.97077 13.5401C8.40143 13.9449 8.07296 14.5903 7.90325 15.0498C8.39595 15.0389 9.11311 14.9459 9.68246 14.5411C10.2518 14.1363 10.5803 13.4909 10.75 13.0314Z" fill="#E5BC4E"></path><path d="M4.90847 16.0234C4.27343 16.0234 3.28255 15.914 2.46138 15.3287C1.15845 14.4043 0.83546 12.6976 0.824511 12.6265L0.731445 12.1233L1.2351 12.0412C1.30627 12.0303 3.03073 11.7732 4.32818 12.6921C5.63111 13.6166 5.9541 15.3233 5.96505 15.3944L6.05812 15.8976L5.55446 15.9797C5.55446 15.9797 5.27527 16.0234 4.90847 16.0234ZM1.96868 12.9985C2.13839 13.4634 2.46686 14.1089 3.0362 14.5082C3.60555 14.913 4.32271 15.006 4.81541 15.0169C4.6457 14.552 4.31723 13.9065 3.74788 13.5072C3.17854 13.1024 2.46138 13.0094 1.96868 12.9985Z" fill="#E5BC4E"></path><path d="M7.81566 11.0563C7.44339 11.0563 7.19704 11.018 7.16967 11.0126L6.66602 10.9305L6.75908 10.4273C6.77003 10.3562 7.0985 8.64402 8.39595 7.72505C9.69888 6.8006 11.4179 7.06317 11.489 7.07411L11.9927 7.15616L11.8996 7.65941C11.8887 7.73052 11.5602 9.44265 10.2628 10.3616C9.44158 10.9469 8.4507 11.0563 7.81566 11.0563ZM10.75 8.03684C10.2573 8.04778 9.54012 8.14077 8.97077 8.54556C8.40143 8.95035 8.07296 9.59582 7.90325 10.0553C8.39595 10.0444 9.11311 9.95137 9.68246 9.54659C10.2518 9.1418 10.5803 8.49633 10.75 8.03684Z" fill="#E5BC4E"></path><path d="M6.4108 6.92898L6.04949 6.56796C5.99474 6.51873 4.77393 5.28249 4.74656 3.68523C4.71919 2.08796 5.91262 0.818901 5.96189 0.769671L6.31226 0.397705L6.67358 0.758731C6.72832 0.807961 7.94913 2.0442 7.9765 3.64146C7.9984 5.23326 6.81044 6.50779 6.76117 6.56249L6.4108 6.93445V6.92898ZM6.33963 1.91839C6.06591 2.32864 5.73744 2.97411 5.74839 3.67428C5.75934 4.37446 6.10423 5.00898 6.3889 5.4083C6.66263 4.99804 6.9911 4.35258 6.98015 3.6524C6.9692 2.95223 6.62431 2.3177 6.33963 1.91839Z" fill="#E5BC4E"></path><path d="M4.90847 11.0234C4.27343 11.0234 3.28255 10.914 2.46138 10.3287C1.15845 9.40428 0.83546 7.69762 0.824511 7.6265L0.731445 7.12326L1.2351 7.04121C1.30627 7.03027 3.03073 6.77317 4.32818 7.69215C5.63111 8.61659 5.9541 10.3233 5.96505 10.3944L6.05812 10.8976L5.55446 10.9797C5.55446 10.9797 5.27527 11.0234 4.90847 11.0234ZM1.96868 8.00394C2.13839 8.4689 2.46686 9.11437 3.0362 9.51368C3.60555 9.91847 4.32271 10.0115 4.81541 10.0224C4.6457 9.56291 4.31723 8.91745 3.74788 8.51266C3.17854 8.10787 2.46138 8.01488 1.96868 8.00394Z" fill="#E5BC4E"></path></svg> 