<?xml version="1.0" encoding="UTF-8"?> <svg xmlns="http://www.w3.org/2000/svg" width="14" height="18" viewBox="0 0 14 18" fill="none"><path d="M11.9537 3.81265C10.6453 1.35658 8.94272 0 7.16899 0C5.39526 0 3.69269 1.35111 2.38429 3.81265C1.28392 5.88034 0.599609 8.50598 0.599609 10.6667C0.599609 14.8185 3.17809 17.5043 7.16899 17.5043C11.1599 17.5043 13.7384 14.8185 13.7384 10.6667C13.7384 8.50051 13.0541 5.87487 11.9537 3.81265ZM7.16899 16.4102C3.1343 16.4102 1.69451 13.4455 1.69451 10.6667C1.69451 6.88683 4.14707 1.09402 7.16899 1.09402C10.1909 1.09402 12.6435 6.88683 12.6435 10.6667C12.6435 13.4455 11.2037 16.4102 7.16899 16.4102Z" fill="#E5BC4E"></path><path d="M7.16905 7.11108C5.0559 7.11108 3.33691 8.82869 3.33691 10.9401C3.33691 13.0516 5.0559 14.7692 7.16905 14.7692C9.2822 14.7692 11.0012 13.0516 11.0012 10.9401C11.0012 8.82869 9.2822 7.11108 7.16905 7.11108ZM7.16905 13.6752C5.6581 13.6752 4.43181 12.4499 4.43181 10.9401C4.43181 9.4304 5.6581 8.2051 7.16905 8.2051C8.68001 8.2051 9.90629 9.4304 9.90629 10.9401C9.90629 12.4499 8.68001 13.6752 7.16905 13.6752Z" fill="#E5BC4E"></path></svg> 