<?xml version="1.0" encoding="UTF-8"?> <svg xmlns="http://www.w3.org/2000/svg" width="12" height="17" viewBox="0 0 12 17" fill="none"><path d="M11.555 6.03699L9.57733 2.58006V0.675421C9.57733 0.394577 9.34737 0.164795 9.0663 0.164795H3.44489C3.16382 0.164795 2.93386 0.394577 2.93386 0.675421V2.55452L0.475772 5.99614C0.475772 5.99614 0.455332 6.03699 0.445111 6.06252C0.43489 6.07784 0.42466 6.09827 0.41955 6.11359C0.399108 6.16975 0.383789 6.23103 0.383789 6.2923V15.9942C0.383789 16.275 0.613756 16.5048 0.894826 16.5048H11.1156C11.3966 16.5048 11.6266 16.275 11.6266 15.9942V6.2923C11.6266 6.2055 11.601 6.11359 11.5602 6.03699H11.555ZM8.55526 1.18605V2.2073H3.95593V1.18605H8.55526ZM1.40075 15.4836V6.80293H4.46697C4.74804 6.80293 4.978 6.57315 4.978 6.2923C4.978 6.01146 4.74804 5.78168 4.46697 5.78168H1.88112L3.70553 3.22855H8.1822L6.57755 6.03699C6.53156 6.11359 6.51111 6.20039 6.51111 6.2923V15.4836H1.40075ZM10.5994 15.4836H7.53319V6.43017L9.0663 3.74939L10.5994 6.43017V15.4836Z" fill="#E5BC4E"></path></svg> 