<?xml version="1.0" encoding="UTF-8"?> <svg xmlns="http://www.w3.org/2000/svg" width="19" height="16" viewBox="0 0 19 16" fill="none"><path d="M4.34573 1.16124C0.53549 2.99372 -1.07401 7.57765 0.754469 11.3848C2.32565 14.645 6.25633 16.0289 9.51912 14.459C12.2399 13.1517 13.3896 9.88056 12.0812 7.16193C11.0356 4.98483 8.41327 4.06586 6.23443 5.11064C4.60303 5.89287 3.91325 7.85663 4.6961 9.49218C5.34756 10.8488 6.98991 11.4286 8.34758 10.7722C9.437 10.2525 9.89686 8.9397 9.37131 7.85116C9.23992 7.57765 8.91145 7.46278 8.6432 7.59406C8.37495 7.72534 8.25451 8.05355 8.3859 8.32158C8.64867 8.86312 8.41875 9.51953 7.8713 9.7821C7.0556 10.1759 6.07019 9.83133 5.6815 9.01081C5.15595 7.92227 5.62129 6.61492 6.70523 6.08979C8.33663 5.30757 10.302 5.9968 11.0903 7.62688C12.1359 9.80398 11.2162 12.4241 9.03736 13.4689C6.31655 14.7763 3.03733 13.6276 1.7344 10.9089C0.163225 7.64876 1.54827 3.71577 4.81106 2.15133C9.16328 0.0617581 14.4078 1.89971 16.4991 6.24842L16.9754 7.23304C17.2381 7.77458 17.0082 8.43099 16.4608 8.69355L13.9918 9.87509C13.718 10.0064 13.6031 10.3346 13.7345 10.6026C13.8659 10.8706 14.1943 10.991 14.4626 10.8597L16.9316 9.67816C18.021 9.15851 18.4808 7.84569 17.9553 6.75714L17.479 5.77252C15.1414 0.882271 9.23992 -1.18542 4.34573 1.16124Z" fill="#E5BC4E"></path></svg> 