<?xml version="1.0" encoding="UTF-8"?> <svg xmlns="http://www.w3.org/2000/svg" width="10" height="18" viewBox="0 0 10 18" fill="none"><path d="M8.74493 5.47008H8.19748V4.37607C8.19748 4.07521 7.95113 3.82906 7.65003 3.82906H6.96572L5.98579 0.399316C5.9201 0.164102 5.70111 0 5.46024 0H4.36534C4.11899 0 3.90549 0.164102 3.8398 0.399316L2.85986 3.82906H2.17555C1.87445 3.82906 1.6281 4.07521 1.6281 4.37607V5.47008H1.08065C0.779555 5.47008 0.533203 5.71624 0.533203 6.01709V16.9573C0.533203 17.2581 0.779555 17.5043 1.08065 17.5043H8.74493C9.04602 17.5043 9.29238 17.2581 9.29238 16.9573V6.01709C9.29238 5.71624 9.04602 5.47008 8.74493 5.47008ZM2.723 4.92307H4.36534C4.66644 4.92307 4.91279 4.67692 4.91279 4.37607C4.91279 4.07521 4.66644 3.82906 4.36534 3.82906H3.99855L4.78141 1.09402H5.04965L6.02959 4.52376C6.02959 4.52376 6.03506 4.52376 6.04053 4.52376C6.10623 4.7535 6.30879 4.92307 6.56061 4.92307H7.10806V5.47008H2.72848V4.92307H2.723ZM8.19748 16.4102H1.6281V6.5641H8.19748V16.4102Z" fill="#E5BC4E"></path></svg> 