<?xml version="1.0" encoding="UTF-8"?> <svg xmlns="http://www.w3.org/2000/svg" width="18" height="15" viewBox="0 0 18 15" fill="none"><path d="M3.30721 8.64748C3.60956 8.64748 3.85466 8.40258 3.85466 8.10048C3.85466 7.79837 3.60956 7.55347 3.30721 7.55347C3.00487 7.55347 2.75977 7.79837 2.75977 8.10048C2.75977 8.40258 3.00487 8.64748 3.30721 8.64748Z" fill="#E5BC4E"></path><path d="M16.6 7.72293C17.2295 7.06652 17.5361 6.1202 17.5416 4.81832C17.5416 4.67062 17.4868 4.53387 17.3828 4.42994C17.2788 4.32601 17.1419 4.24396 16.9941 4.27131C15.7405 4.27678 14.5635 4.8949 13.8518 5.93968C12.7842 4.76909 11.1145 4.02515 10.162 3.66413C10.1948 3.05695 10.3098 2.35131 10.4795 1.66755C10.5233 1.50345 10.4795 1.3284 10.381 1.19712C10.2769 1.06584 10.1182 0.989258 9.94846 0.989258C7.9229 1.0002 6.44479 2.45524 6.03968 2.90379C5.64552 3.34139 5.25136 3.64225 4.82983 3.82276C2.89186 4.65968 1.17287 6.11473 0.116297 7.81045C0.00680728 7.98549 0.00680728 8.20977 0.116297 8.39028C0.658271 9.26002 1.30974 10.0313 2.05974 10.6987C2.28419 10.901 2.62908 10.8792 2.83164 10.6549C3.03419 10.4306 3.01229 10.086 2.78784 9.88361C2.20207 9.36396 1.682 8.76772 1.23857 8.10584C2.19113 6.71644 3.64186 5.5349 5.27326 4.82926C5.83166 4.58857 6.36815 4.18926 6.86086 3.64225C7.4083 3.03507 8.28422 2.39507 9.26415 2.1708C9.13824 2.83815 9.07255 3.49456 9.07255 4.0525C9.07255 4.28772 9.22036 4.49558 9.44481 4.57216C10.1784 4.81832 12.0014 5.52396 13.0634 6.68361C13.2879 6.9243 13.5999 7.05011 13.9339 7.0337C14.2733 7.01182 14.5744 6.83678 14.7715 6.5578C15.1711 5.98344 15.7678 5.5896 16.4357 5.43644C16.3591 6.11473 16.1565 6.62891 15.8335 6.97353C15.2149 7.619 15.2149 8.59267 15.8335 9.23814C16.162 9.57729 16.3646 10.0969 16.4357 10.7752C15.7624 10.6275 15.1656 10.2282 14.766 9.6484C14.5744 9.3749 14.2788 9.19985 13.9448 9.17797C13.6109 9.15609 13.2934 9.2819 13.0689 9.52806C12.1547 10.5291 10.4028 11.2566 9.82802 11.4973C9.68569 11.5575 9.57072 11.6778 9.52145 11.82C9.47218 11.9677 9.48314 12.1263 9.55978 12.2631C9.68022 12.4764 9.76781 12.7116 9.82255 12.9469C9.28058 12.8156 8.78787 12.5257 8.41013 12.099C8.30064 11.9787 8.14189 11.913 7.97765 11.9185H7.91743C6.96487 11.9732 5.94662 11.738 4.95574 11.2894C6.05063 10.3705 6.68568 9.03028 6.68568 7.55336C6.68568 7.2525 6.43932 7.00635 6.13823 7.00635C5.83713 7.00635 5.59078 7.2525 5.59078 7.55336C5.59078 8.9537 4.8572 10.1954 3.63091 10.8737C3.46121 10.9667 3.35172 11.1472 3.35172 11.3441C3.35172 11.541 3.45025 11.7216 3.61996 11.8255C4.92836 12.5968 6.3791 13.0234 7.7094 13.0234C7.7313 13.0234 7.75867 13.0234 7.78604 13.0234C8.49773 13.7181 9.45576 14.112 10.4521 14.1175C10.5945 14.1175 10.7368 14.0573 10.8408 13.9588C10.9448 13.8549 10.9996 13.7127 10.9996 13.5704C10.9996 13.1328 10.9174 12.6952 10.7696 12.285C11.7988 11.8255 13.058 11.1691 13.8682 10.2665C14.5799 11.3058 15.7569 11.924 17.016 11.9294C17.1638 11.9294 17.3007 11.8747 17.4047 11.7708C17.5087 11.6669 17.5635 11.5246 17.5635 11.3824C17.558 10.086 17.2514 9.13421 16.6219 8.4778C16.4138 8.259 16.4138 7.94173 16.6219 7.72293H16.6Z" fill="#E5BC4E"></path></svg> 