<?xml version="1.0" encoding="UTF-8"?> <svg xmlns="http://www.w3.org/2000/svg" width="14" height="18" viewBox="0 0 14 18" fill="none"><path d="M12.9357 5.20205C12.0051 4.76991 10.9047 5.15282 10.4831 6.05538L10.3134 6.41641C10.2258 6.59692 10.0835 6.76102 9.8919 6.88136C9.7003 7.00718 9.51416 7.14393 9.32255 7.28068C9.00503 5.9788 8.46306 4.68786 7.70211 3.49538C7.53788 3.23282 7.45027 2.94837 7.45027 2.6694V2.18803C7.45027 1.0612 6.38822 0 5.26048 0C4.13274 0 3.07069 1.0612 3.07069 2.18803V2.6694C3.07069 2.94837 2.9831 3.23282 2.81886 3.49538C1.56521 5.47008 0.875417 7.72923 0.880892 9.84615C0.891841 12.9258 2.52871 14.7692 5.26048 14.7692C5.27143 14.7692 5.28785 14.7692 5.2988 14.7692C5.56158 15.7812 6.26779 16.5798 7.36816 17.094C7.9594 17.3675 8.53969 17.5097 9.09262 17.5097C9.78788 17.5097 10.4448 17.2964 11.0415 16.8643C13.1711 15.3272 13.9321 11.5528 13.5872 8.62085C13.5598 8.39658 13.5872 8.18324 13.6748 7.99726L13.8445 7.63624C14.266 6.7282 13.8554 5.63966 12.9248 5.20752L12.9357 5.20205ZM1.97579 9.85162C1.97031 7.93709 2.59441 5.89128 3.73857 4.09162C4.01777 3.65402 4.16558 3.16718 4.16558 2.68034V2.19897C4.16558 1.72308 4.69661 1.10496 5.26048 1.10496C5.82435 1.10496 6.35538 1.72308 6.35538 2.19897V2.68034C6.35538 3.16718 6.50319 3.65402 6.78238 4.09162C7.92655 5.89128 8.55064 7.93709 8.54517 9.85162C8.53969 11.5966 7.96487 13.6807 5.26048 13.6807C2.55608 13.6807 1.98126 11.5966 1.97579 9.85162ZM12.8645 7.17128L12.6948 7.53231C12.5251 7.8988 12.4594 8.32 12.5087 8.74666C12.8591 11.7005 11.9339 14.8732 10.4065 15.9781C9.66198 16.5142 8.797 16.5579 7.83349 16.1094C7.09444 15.7648 6.61815 15.2725 6.40464 14.6544C8.44115 14.2003 9.62912 12.4827 9.64007 9.85709C9.64007 9.41401 9.60723 8.96 9.54701 8.50598C9.85358 8.25436 10.1656 8.01914 10.4886 7.80581C10.8499 7.5706 11.1291 7.25333 11.2988 6.88684L11.4685 6.52581C11.6382 6.16478 12.0872 6.01709 12.4704 6.1976C12.8536 6.37812 13.0288 6.81572 12.8591 7.17128H12.8645Z" fill="#E5BC4E"></path><path d="M3.61874 8.75759C3.91983 8.75759 4.16619 8.51144 4.16619 8.21058C4.16619 7.90973 3.91983 7.66357 3.61874 7.66357C3.31764 7.66357 3.07129 7.90973 3.07129 8.21058C3.07129 8.51144 3.31764 8.75759 3.61874 8.75759Z" fill="#E5BC4E"></path><path d="M5.80853 12.0397C5.80853 11.7389 5.56218 11.4927 5.26108 11.4927C4.66984 11.4927 4.16619 10.7433 4.16619 9.8517C4.16619 9.55084 3.91983 9.30469 3.61874 9.30469C3.31764 9.30469 3.07129 9.55084 3.07129 9.8517C3.07129 11.3614 4.05122 12.5867 5.26108 12.5867C5.56218 12.5867 5.80853 12.3406 5.80853 12.0397Z" fill="#E5BC4E"></path><path d="M10.8184 13.1608C10.5282 13.0732 10.2217 13.2264 10.1286 13.5163C9.89868 14.2274 9.08845 14.7799 8.54647 14.7799C8.24538 14.7799 7.99902 15.0261 7.99902 15.3269C7.99902 15.6278 8.24538 15.8739 8.54647 15.8739C9.49903 15.8739 10.7801 15.0644 11.1688 13.8555C11.2618 13.5656 11.1031 13.2592 10.8129 13.1662L10.8184 13.1608Z" fill="#E5BC4E"></path></svg> 