<?xml version="1.0" encoding="UTF-8"?> <svg xmlns="http://www.w3.org/2000/svg" width="17" height="17" viewBox="0 0 17 17" fill="none"><path d="M8.52656 6.55176C7.39335 6.55176 6.47363 7.47073 6.47363 8.60304C6.47363 9.73535 7.39335 10.6543 8.52656 10.6543C9.65978 10.6543 10.5795 9.73535 10.5795 8.60304C10.5795 7.47073 9.65978 6.55176 8.52656 6.55176ZM8.52656 9.63141C7.96269 9.63141 7.49736 9.17193 7.49736 8.60304C7.49736 8.03415 7.95722 7.57466 8.52656 7.57466C9.09591 7.57466 9.55577 8.03415 9.55577 8.60304C9.55577 9.17193 9.09591 9.63141 8.52656 9.63141Z" fill="#E5BC4E"></path><path d="M10.5781 4.50026C10.5781 5.63256 11.4978 6.55154 12.6311 6.55154C13.7643 6.55154 14.684 5.63256 14.684 4.50026C14.684 3.36795 13.7643 2.44897 12.6311 2.44897C11.4978 2.44897 10.5781 3.36795 10.5781 4.50026ZM13.6603 4.50026C13.6603 5.06367 13.2004 5.52863 12.6311 5.52863C12.0617 5.52863 11.6019 5.06914 11.6019 4.50026C11.6019 3.93137 12.0617 3.47188 12.6311 3.47188C13.2004 3.47188 13.6603 3.93137 13.6603 4.50026Z" fill="#E5BC4E"></path><path d="M4.42012 10.6543C3.2869 10.6543 2.36719 11.5733 2.36719 12.7056C2.36719 13.8379 3.2869 14.7569 4.42012 14.7569C5.55334 14.7569 6.47305 13.8379 6.47305 12.7056C6.47305 11.5733 5.55334 10.6543 4.42012 10.6543ZM4.42012 13.734C3.85625 13.734 3.39091 13.2745 3.39091 12.7056C3.39091 12.1367 3.85077 11.6772 4.42012 11.6772C4.98946 11.6772 5.44932 12.1367 5.44932 12.7056C5.44932 13.2745 4.98946 13.734 4.42012 13.734Z" fill="#E5BC4E"></path><path d="M16.2268 0.397705H12.6356C10.6757 0.397705 8.97861 1.79258 8.60634 3.71258C8.51875 4.15565 8.19575 4.4948 7.77969 4.57138C6.11545 4.8777 4.79611 6.19599 4.48953 7.8589C4.41289 8.27463 4.07894 8.59736 3.63004 8.68488C1.70849 9.05685 0.3125 10.7526 0.3125 12.7109V16.2992C0.3125 16.5837 0.54243 16.8134 0.827103 16.8134H4.41836C6.37823 16.8134 8.07531 15.4186 8.44758 13.4986C8.53517 13.0555 8.85817 12.7163 9.27423 12.6398C10.9385 12.3334 12.2578 11.0151 12.5644 9.35223C12.641 8.93651 12.975 8.61377 13.4239 8.52625C15.3454 8.15428 16.7414 6.45856 16.7414 4.50027V0.911893C16.7414 0.627449 16.5115 0.397705 16.2268 0.397705ZM15.7122 4.50027C15.7122 5.97172 14.6666 7.24078 13.2268 7.51976C12.3673 7.68933 11.7104 8.3348 11.5571 9.16625C11.3272 10.4134 10.3363 11.4035 9.0881 11.6278C8.25598 11.781 7.60998 12.4374 7.44027 13.2962C7.16107 14.7348 5.891 15.7796 4.41836 15.7796H1.34171V12.7054C1.34171 11.2339 2.38732 9.96488 3.82711 9.68591C4.6866 9.51634 5.34355 8.87087 5.49684 8.03941C5.72677 6.79223 6.71764 5.80215 7.96582 5.57788C8.79794 5.42471 9.44393 4.7683 9.61364 3.9095C9.89284 2.47087 11.1629 1.42608 12.6356 1.42608H15.7122V4.50027Z" fill="#E5BC4E"></path></svg> 