<?xml version="1.0" encoding="UTF-8"?> <svg xmlns="http://www.w3.org/2000/svg" width="18" height="18" viewBox="0 0 18 18" fill="none"><path d="M2.40396 6.62427C2.77623 7.2588 3.466 7.65265 4.20506 7.65265H6.26895C7.008 7.65265 7.69779 7.2588 8.07006 6.62427L9.54268 4.10256C9.64122 3.93299 9.64122 3.71966 9.54268 3.55008L8.07006 1.02838C7.69779 0.393846 7.008 0 6.26895 0H4.20506C3.466 0 2.77623 0.393846 2.40396 1.02838L0.931327 3.55008C0.832787 3.71966 0.832787 3.93299 0.931327 4.10256L2.40396 6.62427ZM3.34558 1.57538C3.52076 1.27453 3.84923 1.08855 4.1996 1.08855H6.26347C6.61384 1.08855 6.9423 1.27453 7.11749 1.57538L8.43136 3.82359L7.11749 6.07179C6.9423 6.37265 6.61384 6.55863 6.26347 6.55863H4.1996C3.84923 6.55863 3.52076 6.37265 3.34558 6.07179L2.03169 3.82359L3.34558 1.57538Z" fill="#E5BC4E"></path><path d="M4.1408 3.82378C4.1408 3.22207 4.6335 2.72976 5.23569 2.72976C5.53679 2.72976 5.78314 2.48361 5.78314 2.18275C5.78314 1.8819 5.53679 1.63574 5.23569 1.63574C4.02583 1.63574 3.0459 2.61489 3.0459 3.82378C3.0459 4.12463 3.29225 4.37078 3.59335 4.37078C3.89444 4.37078 4.1408 4.12463 4.1408 3.82378Z" fill="#E5BC4E"></path><path d="M17.2019 8.47318L15.7292 5.95147C15.357 5.31694 14.6672 4.9231 13.9281 4.9231H11.8643C11.1252 4.9231 10.4354 5.31694 10.0631 5.95147L8.59051 8.47318C8.49197 8.64275 8.49197 8.85609 8.59051 9.02566L10.0631 11.5474C10.4354 12.1819 11.1252 12.5757 11.8643 12.5757H13.9281C14.6672 12.5757 15.357 12.1819 15.7292 11.5474L17.2019 9.02566C17.3004 8.85609 17.3004 8.64275 17.2019 8.47318ZM14.7821 10.9949C14.607 11.2957 14.2785 11.4817 13.9281 11.4817H11.8643C11.5139 11.4817 11.1854 11.2957 11.0102 10.9949L9.69635 8.74668L11.0102 6.49848C11.1854 6.19763 11.5139 6.01164 11.8643 6.01164H13.9281C14.2785 6.01164 14.607 6.19763 14.7821 6.49848L16.096 8.74668L14.7821 10.9949Z" fill="#E5BC4E"></path><path d="M12.8978 6.55859C11.6879 6.55859 10.708 7.53774 10.708 8.74663C10.708 9.04748 10.9544 9.29364 11.2555 9.29364C11.5566 9.29364 11.8029 9.04748 11.8029 8.74663C11.8029 8.14492 12.2956 7.65261 12.8978 7.65261C13.1989 7.65261 13.4453 7.40646 13.4453 7.1056C13.4453 6.80475 13.1989 6.55859 12.8978 6.55859Z" fill="#E5BC4E"></path><path d="M8.0642 10.8687C7.69194 10.2342 7.00215 9.84033 6.26309 9.84033H4.19922C3.46016 9.84033 2.77037 10.2342 2.39811 10.8687L0.925468 13.3904C0.826927 13.56 0.826927 13.7733 0.925468 13.9429L2.39811 16.4646C2.77037 17.0991 3.46016 17.493 4.19922 17.493H6.26309C7.00215 17.493 7.69194 17.0991 8.0642 16.4646L9.53684 13.9429C9.63538 13.7733 9.63538 13.56 9.53684 13.3904L8.0642 10.8687ZM7.11711 15.9176C6.94192 16.2185 6.61346 16.4044 6.26309 16.4044H4.19922C3.84885 16.4044 3.52038 16.2185 3.3452 15.9176L2.03131 13.6694L3.3452 11.4212C3.52038 11.1203 3.84885 10.9343 4.19922 10.9343H6.26309C6.61346 10.9343 6.94192 11.1203 7.11711 11.4212L8.43098 13.6694L7.11711 15.9176Z" fill="#E5BC4E"></path><path d="M5.23569 11.4814C4.02583 11.4814 3.0459 12.4606 3.0459 13.6695C3.0459 13.9703 3.29225 14.2165 3.59335 14.2165C3.89444 14.2165 4.1408 13.9703 4.1408 13.6695C4.1408 13.0678 4.6335 12.5755 5.23569 12.5755C5.53679 12.5755 5.78314 12.3293 5.78314 12.0285C5.78314 11.7276 5.53679 11.4814 5.23569 11.4814Z" fill="#E5BC4E"></path></svg> 