<?xml version="1.0" encoding="UTF-8"?> <svg xmlns="http://www.w3.org/2000/svg" width="78" height="78" viewBox="0 0 78 78" fill="none"><path d="M6 39.2135C6 38.5767 6.25297 37.966 6.70325 37.5157C7.15354 37.0654 7.76425 36.8124 8.40105 36.8124H70.8283C71.4651 36.8124 72.0759 37.0654 72.5261 37.5157C72.9764 37.966 73.2294 38.5767 73.2294 39.2135C73.2294 39.8503 72.9764 40.461 72.5261 40.9113C72.0759 41.3616 71.4651 41.6145 70.8283 41.6145H8.40105C7.76425 41.6145 7.15354 41.3616 6.70325 40.9113C6.25297 40.461 6 39.8503 6 39.2135Z" fill="white" fill-opacity="0.3"></path><path d="M15.6321 32.0105H63.6111C64.3299 32.0141 65.0403 31.8564 65.69 31.5488C66.3397 31.2413 66.9121 30.7918 67.3649 30.2336C67.8177 29.6753 68.1394 29.0226 68.3063 28.3234C68.4732 27.6242 68.481 26.8965 68.3291 26.194C66.0992 15.6533 54.0279 8 39.6216 8C25.2153 8 13.144 15.6533 10.9141 26.194C10.7622 26.8965 10.77 27.6242 10.9369 28.3234C11.1038 29.0226 11.4255 29.6753 11.8783 30.2336C12.3311 30.7918 12.9035 31.2413 13.5532 31.5488C14.2029 31.8564 14.9133 32.0141 15.6321 32.0105ZM39.6216 12.8021C51.5728 12.8021 61.8943 18.9878 63.6111 27.2084H15.6321L15.6111 27.1874C17.3489 18.9878 27.6704 12.8021 39.6216 12.8021Z" fill="white" fill-opacity="0.3"></path><path d="M69.8617 47.7617L57.5173 52.2637L46.3734 47.7888C45.8012 47.56 45.1629 47.56 44.5907 47.7888L33.4858 52.2337L22.363 47.7888C21.8154 47.57 21.2064 47.5604 20.6522 47.7617L7.44643 52.5638C6.8883 52.8095 6.44455 53.2584 6.20527 53.8193C5.96598 54.3802 5.94908 55.0111 6.158 55.584C6.36692 56.1569 6.78601 56.6289 7.33019 56.9041C7.87438 57.1793 8.50289 57.2371 9.08815 57.0658L13.0589 55.6282V57.2219C13.0589 60.4059 14.3237 63.4595 16.5751 65.7109C18.8266 67.9623 21.8801 69.2271 25.0641 69.2271H53.8767C57.0607 69.2271 60.1143 67.9623 62.3657 65.7109C64.6171 63.4595 65.882 60.4059 65.882 57.2219V54.3196L71.5034 52.2757C71.8186 52.1835 72.1116 52.0275 72.3641 51.8175C72.6167 51.6076 72.8235 51.348 72.9717 51.0549C73.1199 50.7618 73.2064 50.4414 73.2259 50.1135C73.2453 49.7857 73.1973 49.4573 73.0848 49.1487C72.9722 48.8402 72.7976 48.558 72.5717 48.3196C72.3457 48.0812 72.0733 47.8917 71.7712 47.7629C71.4691 47.634 71.1438 47.5684 70.8153 47.5703C70.4869 47.5722 70.1623 47.6414 69.8617 47.7738V47.7617ZM61.0799 57.2219C61.0799 59.1323 60.321 60.9644 58.9701 62.3153C57.6193 63.6661 55.7871 64.425 53.8767 64.425H25.0641C23.1537 64.425 21.3216 63.6661 19.9707 62.3153C18.6199 60.9644 17.861 59.1323 17.861 57.2219V53.8844L21.4235 52.5879L32.5674 57.0508C33.1396 57.2796 33.778 57.2796 34.3502 57.0508L45.455 52.6059L56.5599 57.0508C57.1075 57.2696 57.7164 57.2792 58.2706 57.0778L61.0529 56.0664L61.0799 57.2219Z" fill="#EDC148"></path><path d="M5.85254 38.4013C5.85254 37.7644 6.10556 37.1536 6.55593 36.7032C7.00631 36.2528 7.61714 35.9998 8.25407 35.9998H70.6939C71.3308 35.9998 71.9417 36.2528 72.392 36.7032C72.8424 37.1536 73.0954 37.7644 73.0954 38.4013C73.0954 39.0383 72.8424 39.6491 72.392 40.0995C71.9417 40.5499 71.3308 40.8029 70.6939 40.8029H8.25407C7.61714 40.8029 7.00631 40.5499 6.55593 40.0995C6.10556 39.6491 5.85254 39.0383 5.85254 38.4013Z" fill="#EDC148"></path></svg> 