<?xml version="1.0" encoding="UTF-8"?> <svg xmlns="http://www.w3.org/2000/svg" width="78" height="78" viewBox="0 0 78 78" fill="none"><path d="M46.2054 15.3761L46.2054 63.3647C46.2017 64.0836 46.3595 64.7942 46.6671 65.444C46.9747 66.0938 47.4243 66.6663 47.9827 67.1192C48.541 67.5721 49.1939 67.8939 49.8932 68.0608C50.5925 68.2278 51.3204 68.2356 52.0231 68.0837C62.5658 65.8533 70.2207 53.7796 70.2207 39.3704C70.2207 24.9612 62.5658 12.8875 52.0231 10.6571C51.3204 10.5052 50.5925 10.513 49.8932 10.6799C49.1939 10.8468 48.541 11.1686 47.9827 11.6215C47.4243 12.0744 46.9747 12.6469 46.6671 13.2967C46.3595 13.9465 46.2017 14.6571 46.2054 15.3761ZM65.4176 39.3704C65.4176 51.324 59.2307 61.6476 51.0084 63.3647L51.0084 15.3761L51.0295 15.3551C59.2307 17.0932 65.4176 27.4167 65.4176 39.3704ZM31.6521 69.7678L27.1492 57.4209L31.6251 46.2748C31.8539 45.7024 31.8539 45.064 31.6251 44.4916L27.1792 33.3846L31.6251 22.2595C31.8439 21.7118 31.8535 21.1027 31.6521 20.5484L26.849 7.33994C26.6033 6.78169 26.1544 6.33786 25.5934 6.09852C25.0323 5.85919 24.4013 5.84229 23.8283 6.05125C23.2552 6.26021 22.7832 6.67938 22.5079 7.22367C22.2327 7.76797 22.1748 8.3966 22.3462 8.98198L23.7841 12.9535L22.1901 12.9535C19.0054 12.9535 15.9512 14.2186 13.6994 16.4705C11.4475 18.7224 10.1824 21.7765 10.1824 24.9612L10.1824 53.7796C10.1824 56.9642 11.4475 60.0184 13.6994 62.2703C15.9512 64.5221 19.0054 65.7872 22.1901 65.7872L25.0929 65.7872L27.1372 71.4098C27.2295 71.7251 27.3855 72.0181 27.5955 72.2707C27.8055 72.5233 28.0651 72.7301 28.3583 72.8783C28.6515 73.0266 28.9719 73.1131 29.2998 73.1326C29.6278 73.152 29.9562 73.104 30.2648 72.9915C30.5735 72.8789 30.8557 72.7042 31.0941 72.4783C31.3326 72.2523 31.5221 71.9798 31.651 71.6776C31.7799 71.3754 31.8454 71.0501 31.8436 70.7216C31.8417 70.393 31.7724 70.0684 31.6401 69.7678L31.6521 69.7678ZM22.1901 60.9842C20.2793 60.9842 18.4468 60.2251 17.0956 58.874C15.7445 57.5229 14.9855 55.6903 14.9855 53.7796L14.9855 24.9612C14.9855 23.0504 15.7445 21.2179 17.0956 19.8668C18.4468 18.5156 20.2793 17.7566 22.1901 17.7566L25.5282 17.7566L26.825 21.3199L22.3612 32.466C22.1323 33.0383 22.1323 33.6767 22.3612 34.2491L26.807 45.3562L22.3612 56.4633C22.1424 57.011 22.1327 57.62 22.3342 58.1744L23.3458 60.9571L22.1901 60.9842Z" fill="#EDC148"></path><path d="M39.9686 6.22238C40.6055 6.22238 41.2163 6.4754 41.6667 6.92577C42.1171 7.37615 42.3701 7.98699 42.3701 8.62391L42.3701 71.0637C42.3701 71.7007 42.1171 72.3115 41.6667 72.7619C41.2163 73.2123 40.6055 73.4653 39.9686 73.4653C39.3317 73.4653 38.7208 73.2123 38.2704 72.7619C37.8201 72.3115 37.5671 71.7007 37.5671 71.0637L37.5671 8.62391C37.5671 7.98699 37.8201 7.37615 38.2704 6.92577C38.7208 6.4754 39.3317 6.22238 39.9686 6.22238Z" fill="white" fill-opacity="0.3"></path></svg> 