<?xml version="1.0" encoding="UTF-8"?> <svg xmlns="http://www.w3.org/2000/svg" width="78" height="78" viewBox="0 0 78 78" fill="none"><path d="M15.0063 32.1652H62.9949C63.7138 32.1688 64.4244 32.011 65.0742 31.7034C65.7241 31.3958 66.2965 30.9463 66.7494 30.3879C67.2024 29.8296 67.5241 29.1767 67.6911 28.4774C67.858 27.7781 67.8658 27.0502 67.7139 26.3475C65.4835 15.8048 53.4098 8.14987 39.0006 8.14987C24.5914 8.14987 12.5177 15.8048 10.2873 26.3475C10.1354 27.0502 10.1432 27.7781 10.3101 28.4774C10.477 29.1767 10.7988 29.8296 11.2517 30.3879C11.7046 30.9463 12.2771 31.3958 12.9269 31.7034C13.5768 32.011 14.2873 32.1688 15.0063 32.1652ZM39.0006 12.9529C50.9542 12.9529 61.2778 19.1399 62.9949 27.3621H15.0063L14.9853 27.3411C16.7234 19.1399 27.047 12.9529 39.0006 12.9529ZM69.398 46.7185L57.0511 51.2213L45.905 46.7455C45.3326 46.5167 44.6942 46.5167 44.1219 46.7455L33.0148 51.1913L21.8897 46.7455C21.342 46.5267 20.7329 46.5171 20.1786 46.7185L6.97016 51.5215C6.41191 51.7673 5.96808 52.2162 5.72874 52.7772C5.48941 53.3382 5.47251 53.9693 5.68147 54.5423C5.89043 55.1153 6.3096 55.5874 6.85389 55.8626C7.39819 56.1379 8.02682 56.1957 8.61221 56.0244L12.5837 54.5865V56.1805C12.5837 59.3651 13.8488 62.4193 16.1007 64.6712C18.3526 66.9231 21.4068 68.1882 24.5914 68.1882H53.4098C56.5944 68.1882 59.6486 66.9231 61.9005 64.6712C64.1523 62.4193 65.4174 59.3651 65.4174 56.1805V53.2777L71.04 51.2334C71.3553 51.1411 71.6483 50.9851 71.9009 50.7751C72.1535 50.565 72.3603 50.3054 72.5086 50.0123C72.6568 49.7191 72.7433 49.3987 72.7628 49.0707C72.7822 48.7428 72.7342 48.4144 72.6217 48.1057C72.5091 47.7971 72.3345 47.5149 72.1085 47.2764C71.8825 47.038 71.61 46.8485 71.3078 46.7196C71.0057 46.5907 70.6803 46.5251 70.3518 46.527C70.0233 46.5289 69.6986 46.5981 69.398 46.7305V46.7185ZM60.6144 56.1805C60.6144 58.0913 59.8553 59.9238 58.5042 61.2749C57.1531 62.6261 55.3206 63.3851 53.4098 63.3851H24.5914C22.6806 63.3851 20.8481 62.6261 19.497 61.2749C18.1459 59.9238 17.3868 58.0913 17.3868 56.1805V52.8424L20.9501 51.5456L32.0962 56.0094C32.6685 56.2382 33.307 56.2382 33.8793 56.0094L44.9864 51.5636L56.0935 56.0094C56.6412 56.2282 57.2503 56.2378 57.8046 56.0364L60.5874 55.0248L60.6144 56.1805Z" fill="#EDC148"></path><path d="M5.85254 38.4013C5.85254 37.7644 6.10556 37.1536 6.55593 36.7032C7.00631 36.2528 7.61714 35.9998 8.25407 35.9998H70.6939C71.3308 35.9998 71.9417 36.2528 72.392 36.7032C72.8424 37.1536 73.0954 37.7644 73.0954 38.4013C73.0954 39.0383 72.8424 39.6491 72.392 40.0995C71.9417 40.5499 71.3308 40.8029 70.6939 40.8029H8.25407C7.61714 40.8029 7.00631 40.5499 6.55593 40.0995C6.10556 39.6491 5.85254 39.0383 5.85254 38.4013Z" fill="#EDC148"></path></svg> 